<svg width="620" height="620" viewBox="0 0 620 620" fill="none" xmlns="http://www.w3.org/2000/svg">
<path d="M310 1V231.5" stroke="#F6F7F9" stroke-width="2"/>
<path d="M604 214.5L364 292.5" stroke="#F6F7F9" stroke-width="2"/>
<path d="M16 214.5L256 292.5" stroke="#F6F7F9" stroke-width="2"/>
<path d="M491.5 559.5L343 356" stroke="#F6F7F9" stroke-width="2"/>
<path d="M128 559.5L276.5 356" stroke="#F6F7F9" stroke-width="2"/>
<path d="M16.9358 214.778L310 1.85411L603.064 214.778L491.124 559.295H128.876L16.9358 214.778Z" stroke="#E8EAED" stroke-width="3"/>
<path d="M79.0933 234.636L309.5 67.2361L539.907 234.636L451.899 505.496H167.101L79.0933 234.636Z" stroke="#E8EAED" stroke-width="2"/>
<path d="M107.649 244.252L310 97.2361L512.351 244.252L435.06 482.13H184.941L107.649 244.252Z" stroke="#F6F7F9" stroke-width="2"/>
<path d="M49.635 225.402L310 36.2361L570.365 225.402L470.914 531.48H149.086L49.635 225.402Z" stroke="#F6F7F9" stroke-width="2"/>
<path d="M192.294 271.755L310 186.236L427.706 271.755L382.747 410.127H237.253L192.294 271.755Z" stroke="#E8EAED" stroke-width="2"/>
<path d="M214.168 278.862L310 209.236L405.832 278.862L369.228 391.52H250.772L214.168 278.862Z" stroke="#F6F7F9" stroke-width="2"/>
<path d="M235.091 285.661L310 231.236L384.909 285.661L356.296 373.721H263.704L235.091 285.661Z" stroke="#E8EAED" stroke-width="2"/>
<path d="M256.014 292.459L310 253.236L363.986 292.459L343.365 355.923H276.635L256.014 292.459Z" stroke="#F6F7F9" stroke-width="2"/>
<path d="M138.083 254.141L310 129.236L481.917 254.141L416.25 456.241H203.75L138.083 254.141Z" stroke="#E8EAED" stroke-width="2"/>
<path d="M164.713 262.793L310 157.236L455.287 262.793L399.792 433.589H220.208L164.713 262.793Z" stroke="#F6F7F9" stroke-width="2"/>
</svg>
